# Wavefront OBJ file automatically generated by Tiled2Unity

# Vertices (Count = 336)
v 0 -32 0
v -32 -32 0
v -32 0 0
v 0 0 0
v -64 -32 0
v -64 0 0
v -96 -32 0
v -96 0 0
v -128 -32 0
v -128 0 0
v -160 -32 0
v -160 0 0
v -192 -32 0
v -192 0 0
v -224 -32 0
v -224 0 0
v -256 -32 0
v -256 0 0
v -288 -32 0
v -288 0 0
v -320 -32 0
v -320 0 0
v -352 -32 0
v -352 0 0
v -384 -32 0
v -384 0 0
v -416 -32 0
v -416 0 0
v -448 -32 0
v -448 0 0
v -480 -32 0
v -480 0 0
v -512 -32 0
v -512 0 0
v -544 -32 0
v -544 0 0
v -576 -32 0
v -576 0 0
v -608 -32 0
v -608 0 0
v -640 -32 0
v -640 0 0
v 0 -64 0
v -32 -64 0
v -64 -64 0
v -96 -64 0
v -128 -64 0
v -160 -64 0
v -192 -64 0
v -224 -64 0
v -256 -64 0
v -288 -64 0
v -320 -64 0
v -352 -64 0
v -384 -64 0
v -416 -64 0
v -448 -64 0
v -480 -64 0
v -512 -64 0
v -544 -64 0
v -576 -64 0
v -608 -64 0
v -640 -64 0
v 0 -96 0
v -32 -96 0
v -64 -96 0
v -96 -96 0
v -128 -96 0
v -160 -96 0
v -192 -96 0
v -224 -96 0
v -256 -96 0
v -288 -96 0
v -320 -96 0
v -352 -96 0
v -384 -96 0
v -416 -96 0
v -448 -96 0
v -480 -96 0
v -512 -96 0
v -544 -96 0
v -576 -96 0
v -608 -96 0
v -640 -96 0
v 0 -128 0
v -32 -128 0
v -64 -128 0
v -96 -128 0
v -128 -128 0
v -160 -128 0
v -192 -128 0
v -224 -128 0
v -256 -128 0
v -288 -128 0
v -320 -128 0
v -352 -128 0
v -384 -128 0
v -416 -128 0
v -448 -128 0
v -480 -128 0
v -512 -128 0
v -544 -128 0
v -576 -128 0
v -608 -128 0
v -640 -128 0
v 0 -160 0
v -32 -160 0
v -64 -160 0
v -96 -160 0
v -128 -160 0
v -160 -160 0
v -192 -160 0
v -224 -160 0
v -256 -160 0
v -288 -160 0
v -320 -160 0
v -352 -160 0
v -384 -160 0
v -416 -160 0
v -448 -160 0
v -480 -160 0
v -512 -160 0
v -544 -160 0
v -576 -160 0
v -608 -160 0
v -640 -160 0
v 0 -192 0
v -32 -192 0
v -64 -192 0
v -96 -192 0
v -128 -192 0
v -160 -192 0
v -192 -192 0
v -224 -192 0
v -256 -192 0
v -288 -192 0
v -320 -192 0
v -352 -192 0
v -384 -192 0
v -416 -192 0
v -448 -192 0
v -480 -192 0
v -512 -192 0
v -544 -192 0
v -576 -192 0
v -608 -192 0
v -640 -192 0
v 0 -224 0
v -32 -224 0
v -64 -224 0
v -96 -224 0
v -128 -224 0
v -160 -224 0
v -192 -224 0
v -224 -224 0
v -256 -224 0
v -288 -224 0
v -320 -224 0
v -352 -224 0
v -384 -224 0
v -416 -224 0
v -448 -224 0
v -480 -224 0
v -512 -224 0
v -544 -224 0
v -576 -224 0
v -608 -224 0
v -640 -224 0
v 0 -256 0
v -32 -256 0
v -64 -256 0
v -96 -256 0
v -128 -256 0
v -160 -256 0
v -192 -256 0
v -224 -256 0
v -256 -256 0
v -288 -256 0
v -320 -256 0
v -352 -256 0
v -384 -256 0
v -416 -256 0
v -448 -256 0
v -480 -256 0
v -512 -256 0
v -544 -256 0
v -576 -256 0
v -608 -256 0
v -640 -256 0
v 0 -288 0
v -32 -288 0
v -64 -288 0
v -96 -288 0
v -128 -288 0
v -160 -288 0
v -192 -288 0
v -224 -288 0
v -256 -288 0
v -288 -288 0
v -320 -288 0
v -352 -288 0
v -384 -288 0
v -416 -288 0
v -448 -288 0
v -480 -288 0
v -512 -288 0
v -544 -288 0
v -576 -288 0
v -608 -288 0
v -640 -288 0
v 0 -320 0
v -32 -320 0
v -64 -320 0
v -96 -320 0
v -128 -320 0
v -160 -320 0
v -192 -320 0
v -224 -320 0
v -256 -320 0
v -288 -320 0
v -320 -320 0
v -352 -320 0
v -384 -320 0
v -416 -320 0
v -448 -320 0
v -480 -320 0
v -512 -320 0
v -544 -320 0
v -576 -320 0
v -608 -320 0
v -640 -320 0
v 0 -352 0
v -32 -352 0
v -64 -352 0
v -96 -352 0
v -128 -352 0
v -160 -352 0
v -192 -352 0
v -224 -352 0
v -256 -352 0
v -288 -352 0
v -320 -352 0
v -352 -352 0
v -384 -352 0
v -416 -352 0
v -448 -352 0
v -480 -352 0
v -512 -352 0
v -544 -352 0
v -576 -352 0
v -608 -352 0
v -640 -352 0
v 0 -384 0
v -32 -384 0
v -64 -384 0
v -96 -384 0
v -128 -384 0
v -160 -384 0
v -192 -384 0
v -224 -384 0
v -256 -384 0
v -288 -384 0
v -320 -384 0
v -352 -384 0
v -384 -384 0
v -416 -384 0
v -448 -384 0
v -480 -384 0
v -512 -384 0
v -544 -384 0
v -576 -384 0
v -608 -384 0
v -640 -384 0
v 0 -416 0
v -32 -416 0
v -64 -416 0
v -96 -416 0
v -128 -416 0
v -160 -416 0
v -192 -416 0
v -224 -416 0
v -256 -416 0
v -288 -416 0
v -320 -416 0
v -352 -416 0
v -384 -416 0
v -416 -416 0
v -448 -416 0
v -480 -416 0
v -512 -416 0
v -544 -416 0
v -576 -416 0
v -608 -416 0
v -640 -416 0
v 0 -448 0
v -32 -448 0
v -64 -448 0
v -96 -448 0
v -128 -448 0
v -160 -448 0
v -192 -448 0
v -224 -448 0
v -256 -448 0
v -288 -448 0
v -320 -448 0
v -352 -448 0
v -384 -448 0
v -416 -448 0
v -448 -448 0
v -480 -448 0
v -512 -448 0
v -544 -448 0
v -576 -448 0
v -608 -448 0
v -640 -448 0
v 0 -480 0
v -32 -480 0
v -64 -480 0
v -96 -480 0
v -128 -480 0
v -160 -480 0
v -192 -480 0
v -224 -480 0
v -256 -480 0
v -288 -480 0
v -320 -480 0
v -352 -480 0
v -384 -480 0
v -416 -480 0
v -448 -480 0
v -480 -480 0
v -512 -480 0
v -544 -480 0
v -576 -480 0
v -608 -480 0
v -640 -480 0

# Texture cooridinates (Count = 128)
vt 0.1500061 0.9166768
vt 0.1999939 0.9166768
vt 0.1999939 0.9999898
vt 0.1500061 0.9999898
vt 6.103516E-06 0.6666769
vt 0.04999389 0.6666769
vt 0.04999389 0.7499899
vt 6.103516E-06 0.7499899
vt 0.0500061 0.6666769
vt 0.0999939 0.6666769
vt 0.0999939 0.7499899
vt 0.0500061 0.7499899
vt 0.1000061 0.5833435
vt 0.1499939 0.5833435
vt 0.1499939 0.6666565
vt 0.1000061 0.6666565
vt 0.0500061 0.5833435
vt 0.0999939 0.5833435
vt 0.0999939 0.6666565
vt 0.0500061 0.6666565
vt 0.1000061 0.4166768
vt 0.1499939 0.4166768
vt 0.1499939 0.4999898
vt 0.1000061 0.4999898
vt 6.103516E-06 0.5833435
vt 0.04999389 0.5833435
vt 0.04999389 0.6666565
vt 6.103516E-06 0.6666565
vt 0.6500061 0.5000101
vt 0.6999939 0.5000101
vt 0.6999939 0.5833231
vt 0.6500061 0.5833231
vt 0.1500061 0.6666769
vt 0.1999939 0.6666769
vt 0.1999939 0.7499899
vt 0.1500061 0.7499899
vt 0.2000061 0.6666769
vt 0.2499939 0.6666769
vt 0.2499939 0.7499899
vt 0.2000061 0.7499899
vt 0.6000061 0.3333435
vt 0.6499939 0.3333435
vt 0.6499939 0.4166565
vt 0.6000061 0.4166565
vt 0.4500061 0.5833435
vt 0.4999939 0.5833435
vt 0.4999939 0.6666565
vt 0.4500061 0.6666565
vt 0.5500061 0.5833435
vt 0.5999939 0.5833435
vt 0.5999939 0.6666565
vt 0.5500061 0.6666565
vt 0.3500061 0.6666769
vt 0.3999939 0.6666769
vt 0.3999939 0.7499899
vt 0.3500061 0.7499899
vt 0.1500061 0.5833435
vt 0.1999939 0.5833435
vt 0.1999939 0.6666565
vt 0.1500061 0.6666565
vt 0.2000061 0.5833435
vt 0.2499939 0.5833435
vt 0.2499939 0.6666565
vt 0.2000061 0.6666565
vt 0.5500061 0.5000101
vt 0.5999939 0.5000101
vt 0.5999939 0.5833231
vt 0.5500061 0.5833231
vt 0.6000061 0.5000101
vt 0.6499939 0.5000101
vt 0.6499939 0.5833231
vt 0.6000061 0.5833231
vt 0.3500061 0.5833435
vt 0.3999939 0.5833435
vt 0.3999939 0.6666565
vt 0.3500061 0.6666565
vt 0.1500061 0.5000101
vt 0.1999939 0.5000101
vt 0.1999939 0.5833231
vt 0.1500061 0.5833231
vt 0.2000061 0.5000101
vt 0.2499939 0.5000101
vt 0.2499939 0.5833231
vt 0.2000061 0.5833231
vt 0.4500061 0.3333435
vt 0.4999939 0.3333435
vt 0.4999939 0.4166565
vt 0.4500061 0.4166565
vt 0.6000061 0.5833435
vt 0.6499939 0.5833435
vt 0.6499939 0.6666565
vt 0.6000061 0.6666565
vt 0.7500061 0.1666768
vt 0.7999939 0.1666768
vt 0.7999939 0.2499898
vt 0.7500061 0.2499898
vt 0.8000061 0.1666768
vt 0.8499939 0.1666768
vt 0.8499939 0.2499898
vt 0.8000061 0.2499898
vt 0.5500061 0.7500102
vt 0.5999939 0.7500102
vt 0.5999939 0.8333232
vt 0.5500061 0.8333232
vt 0.4000061 0.4166768
vt 0.4499939 0.4166768
vt 0.4499939 0.4999898
vt 0.4000061 0.4999898
vt 0.7500061 0.08334351
vt 0.7999939 0.08334351
vt 0.7999939 0.1666565
vt 0.7500061 0.1666565
vt 0.8000061 0.08334351
vt 0.8499939 0.08334351
vt 0.8499939 0.1666565
vt 0.8000061 0.1666565
vt 0.3000061 0.5000101
vt 0.3499939 0.5000101
vt 0.3499939 0.5833231
vt 0.3000061 0.5833231
vt 0.4000061 0.3333435
vt 0.4499939 0.3333435
vt 0.4499939 0.4166565
vt 0.4000061 0.4166565
vt 0.3000061 0.3333435
vt 0.3499939 0.3333435
vt 0.3499939 0.4166565
vt 0.3000061 0.4166565

# Normal
vn 0 0 -1

# Groups (Count = 3)

g mesh_0001
f 1/1/1 2/2/1 3/3/1 4/4/1
f 2/1/1 5/2/1 6/3/1 3/4/1
f 5/1/1 7/2/1 8/3/1 6/4/1
f 7/1/1 9/2/1 10/3/1 8/4/1
f 9/1/1 11/2/1 12/3/1 10/4/1
f 11/1/1 13/2/1 14/3/1 12/4/1
f 13/1/1 15/2/1 16/3/1 14/4/1
f 15/1/1 17/2/1 18/3/1 16/4/1
f 17/1/1 19/2/1 20/3/1 18/4/1
f 19/1/1 21/2/1 22/3/1 20/4/1
f 21/1/1 23/2/1 24/3/1 22/4/1
f 23/1/1 25/2/1 26/3/1 24/4/1
f 25/1/1 27/2/1 28/3/1 26/4/1
f 27/1/1 29/2/1 30/3/1 28/4/1
f 29/1/1 31/2/1 32/3/1 30/4/1
f 31/1/1 33/2/1 34/3/1 32/4/1
f 33/1/1 35/2/1 36/3/1 34/4/1
f 35/1/1 37/2/1 38/3/1 36/4/1
f 37/1/1 39/2/1 40/3/1 38/4/1
f 39/1/1 41/2/1 42/3/1 40/4/1
f 43/1/1 44/2/1 2/3/1 1/4/1
f 44/1/1 45/2/1 5/3/1 2/4/1
f 45/1/1 46/2/1 7/3/1 5/4/1
f 46/1/1 47/2/1 9/3/1 7/4/1
f 47/1/1 48/2/1 11/3/1 9/4/1
f 48/1/1 49/2/1 13/3/1 11/4/1
f 49/1/1 50/2/1 15/3/1 13/4/1
f 50/1/1 51/2/1 17/3/1 15/4/1
f 51/1/1 52/2/1 19/3/1 17/4/1
f 52/1/1 53/2/1 21/3/1 19/4/1
f 53/1/1 54/2/1 23/3/1 21/4/1
f 54/1/1 55/2/1 25/3/1 23/4/1
f 55/1/1 56/2/1 27/3/1 25/4/1
f 56/1/1 57/2/1 29/3/1 27/4/1
f 57/1/1 58/2/1 31/3/1 29/4/1
f 58/1/1 59/2/1 33/3/1 31/4/1
f 59/1/1 60/2/1 35/3/1 33/4/1
f 60/1/1 61/2/1 37/3/1 35/4/1
f 61/1/1 62/2/1 39/3/1 37/4/1
f 62/1/1 63/2/1 41/3/1 39/4/1
f 64/1/1 65/2/1 44/3/1 43/4/1
f 65/1/1 66/2/1 45/3/1 44/4/1
f 66/1/1 67/2/1 46/3/1 45/4/1
f 67/1/1 68/2/1 47/3/1 46/4/1
f 68/1/1 69/2/1 48/3/1 47/4/1
f 69/1/1 70/2/1 49/3/1 48/4/1
f 70/1/1 71/2/1 50/3/1 49/4/1
f 71/1/1 72/2/1 51/3/1 50/4/1
f 72/1/1 73/2/1 52/3/1 51/4/1
f 73/1/1 74/2/1 53/3/1 52/4/1
f 74/1/1 75/2/1 54/3/1 53/4/1
f 75/1/1 76/2/1 55/3/1 54/4/1
f 76/1/1 77/2/1 56/3/1 55/4/1
f 77/1/1 78/2/1 57/3/1 56/4/1
f 78/1/1 79/2/1 58/3/1 57/4/1
f 79/1/1 80/2/1 59/3/1 58/4/1
f 80/1/1 81/2/1 60/3/1 59/4/1
f 81/1/1 82/2/1 61/3/1 60/4/1
f 82/1/1 83/2/1 62/3/1 61/4/1
f 83/1/1 84/2/1 63/3/1 62/4/1
f 85/1/1 86/2/1 65/3/1 64/4/1
f 86/1/1 87/2/1 66/3/1 65/4/1
f 87/1/1 88/2/1 67/3/1 66/4/1
f 88/1/1 89/2/1 68/3/1 67/4/1
f 89/1/1 90/2/1 69/3/1 68/4/1
f 90/1/1 91/2/1 70/3/1 69/4/1
f 91/1/1 92/2/1 71/3/1 70/4/1
f 92/1/1 93/2/1 72/3/1 71/4/1
f 93/1/1 94/2/1 73/3/1 72/4/1
f 94/1/1 95/2/1 74/3/1 73/4/1
f 95/1/1 96/2/1 75/3/1 74/4/1
f 96/1/1 97/2/1 76/3/1 75/4/1
f 97/1/1 98/2/1 77/3/1 76/4/1
f 98/1/1 99/2/1 78/3/1 77/4/1
f 99/1/1 100/2/1 79/3/1 78/4/1
f 100/1/1 101/2/1 80/3/1 79/4/1
f 101/1/1 102/2/1 81/3/1 80/4/1
f 102/1/1 103/2/1 82/3/1 81/4/1
f 103/1/1 104/2/1 83/3/1 82/4/1
f 104/1/1 105/2/1 84/3/1 83/4/1
f 106/1/1 107/2/1 86/3/1 85/4/1
f 107/1/1 108/2/1 87/3/1 86/4/1
f 108/1/1 109/2/1 88/3/1 87/4/1
f 109/1/1 110/2/1 89/3/1 88/4/1
f 110/1/1 111/2/1 90/3/1 89/4/1
f 111/1/1 112/2/1 91/3/1 90/4/1
f 112/1/1 113/2/1 92/3/1 91/4/1
f 113/1/1 114/2/1 93/3/1 92/4/1
f 114/1/1 115/2/1 94/3/1 93/4/1
f 115/1/1 116/2/1 95/3/1 94/4/1
f 116/1/1 117/2/1 96/3/1 95/4/1
f 117/1/1 118/2/1 97/3/1 96/4/1
f 118/1/1 119/2/1 98/3/1 97/4/1
f 119/1/1 120/2/1 99/3/1 98/4/1
f 120/1/1 121/2/1 100/3/1 99/4/1
f 121/1/1 122/2/1 101/3/1 100/4/1
f 122/1/1 123/2/1 102/3/1 101/4/1
f 123/1/1 124/2/1 103/3/1 102/4/1
f 124/1/1 125/2/1 104/3/1 103/4/1
f 125/1/1 126/2/1 105/3/1 104/4/1
f 127/1/1 128/2/1 107/3/1 106/4/1
f 128/1/1 129/2/1 108/3/1 107/4/1
f 129/1/1 130/2/1 109/3/1 108/4/1
f 130/1/1 131/2/1 110/3/1 109/4/1
f 131/1/1 132/2/1 111/3/1 110/4/1
f 132/1/1 133/2/1 112/3/1 111/4/1
f 133/1/1 134/2/1 113/3/1 112/4/1
f 134/1/1 135/2/1 114/3/1 113/4/1
f 135/1/1 136/2/1 115/3/1 114/4/1
f 136/1/1 137/2/1 116/3/1 115/4/1
f 137/1/1 138/2/1 117/3/1 116/4/1
f 138/1/1 139/2/1 118/3/1 117/4/1
f 139/1/1 140/2/1 119/3/1 118/4/1
f 140/1/1 141/2/1 120/3/1 119/4/1
f 141/1/1 142/2/1 121/3/1 120/4/1
f 142/1/1 143/2/1 122/3/1 121/4/1
f 143/1/1 144/2/1 123/3/1 122/4/1
f 144/1/1 145/2/1 124/3/1 123/4/1
f 145/1/1 146/2/1 125/3/1 124/4/1
f 146/1/1 147/2/1 126/3/1 125/4/1
f 148/1/1 149/2/1 128/3/1 127/4/1
f 149/1/1 150/2/1 129/3/1 128/4/1
f 150/1/1 151/2/1 130/3/1 129/4/1
f 151/1/1 152/2/1 131/3/1 130/4/1
f 152/1/1 153/2/1 132/3/1 131/4/1
f 153/1/1 154/2/1 133/3/1 132/4/1
f 154/1/1 155/2/1 134/3/1 133/4/1
f 155/1/1 156/2/1 135/3/1 134/4/1
f 156/1/1 157/2/1 136/3/1 135/4/1
f 157/1/1 158/2/1 137/3/1 136/4/1
f 158/1/1 159/2/1 138/3/1 137/4/1
f 159/1/1 160/2/1 139/3/1 138/4/1
f 160/1/1 161/2/1 140/3/1 139/4/1
f 161/1/1 162/2/1 141/3/1 140/4/1
f 162/1/1 163/2/1 142/3/1 141/4/1
f 163/1/1 164/2/1 143/3/1 142/4/1
f 164/1/1 165/2/1 144/3/1 143/4/1
f 165/1/1 166/2/1 145/3/1 144/4/1
f 166/1/1 167/2/1 146/3/1 145/4/1
f 167/1/1 168/2/1 147/3/1 146/4/1
f 169/1/1 170/2/1 149/3/1 148/4/1
f 170/1/1 171/2/1 150/3/1 149/4/1
f 171/1/1 172/2/1 151/3/1 150/4/1
f 172/1/1 173/2/1 152/3/1 151/4/1
f 173/1/1 174/2/1 153/3/1 152/4/1
f 174/1/1 175/2/1 154/3/1 153/4/1
f 175/1/1 176/2/1 155/3/1 154/4/1
f 176/1/1 177/2/1 156/3/1 155/4/1
f 177/1/1 178/2/1 157/3/1 156/4/1
f 178/1/1 179/2/1 158/3/1 157/4/1
f 179/1/1 180/2/1 159/3/1 158/4/1
f 180/1/1 181/2/1 160/3/1 159/4/1
f 181/1/1 182/2/1 161/3/1 160/4/1
f 182/1/1 183/2/1 162/3/1 161/4/1
f 183/1/1 184/2/1 163/3/1 162/4/1
f 184/1/1 185/2/1 164/3/1 163/4/1
f 185/1/1 186/2/1 165/3/1 164/4/1
f 186/1/1 187/2/1 166/3/1 165/4/1
f 187/1/1 188/2/1 167/3/1 166/4/1
f 188/1/1 189/2/1 168/3/1 167/4/1
f 190/1/1 191/2/1 170/3/1 169/4/1
f 191/1/1 192/2/1 171/3/1 170/4/1
f 192/1/1 193/2/1 172/3/1 171/4/1
f 193/1/1 194/2/1 173/3/1 172/4/1
f 194/1/1 195/2/1 174/3/1 173/4/1
f 195/1/1 196/2/1 175/3/1 174/4/1
f 196/1/1 197/2/1 176/3/1 175/4/1
f 197/1/1 198/2/1 177/3/1 176/4/1
f 198/1/1 199/2/1 178/3/1 177/4/1
f 199/1/1 200/2/1 179/3/1 178/4/1
f 200/1/1 201/2/1 180/3/1 179/4/1
f 201/1/1 202/2/1 181/3/1 180/4/1
f 202/1/1 203/2/1 182/3/1 181/4/1
f 203/1/1 204/2/1 183/3/1 182/4/1
f 204/1/1 205/2/1 184/3/1 183/4/1
f 205/1/1 206/2/1 185/3/1 184/4/1
f 206/1/1 207/2/1 186/3/1 185/4/1
f 207/1/1 208/2/1 187/3/1 186/4/1
f 208/1/1 209/2/1 188/3/1 187/4/1
f 209/1/1 210/2/1 189/3/1 188/4/1
f 211/1/1 212/2/1 191/3/1 190/4/1
f 212/1/1 213/2/1 192/3/1 191/4/1
f 213/1/1 214/2/1 193/3/1 192/4/1
f 214/1/1 215/2/1 194/3/1 193/4/1
f 215/1/1 216/2/1 195/3/1 194/4/1
f 216/1/1 217/2/1 196/3/1 195/4/1
f 217/1/1 218/2/1 197/3/1 196/4/1
f 218/1/1 219/2/1 198/3/1 197/4/1
f 219/1/1 220/2/1 199/3/1 198/4/1
f 220/1/1 221/2/1 200/3/1 199/4/1
f 221/1/1 222/2/1 201/3/1 200/4/1
f 222/1/1 223/2/1 202/3/1 201/4/1
f 223/1/1 224/2/1 203/3/1 202/4/1
f 224/1/1 225/2/1 204/3/1 203/4/1
f 225/1/1 226/2/1 205/3/1 204/4/1
f 226/1/1 227/2/1 206/3/1 205/4/1
f 227/1/1 228/2/1 207/3/1 206/4/1
f 228/1/1 229/2/1 208/3/1 207/4/1
f 229/1/1 230/2/1 209/3/1 208/4/1
f 230/1/1 231/2/1 210/3/1 209/4/1
f 232/1/1 233/2/1 212/3/1 211/4/1
f 233/1/1 234/2/1 213/3/1 212/4/1
f 234/1/1 235/2/1 214/3/1 213/4/1
f 235/1/1 236/2/1 215/3/1 214/4/1
f 236/1/1 237/2/1 216/3/1 215/4/1
f 237/1/1 238/2/1 217/3/1 216/4/1
f 238/1/1 239/2/1 218/3/1 217/4/1
f 239/1/1 240/2/1 219/3/1 218/4/1
f 240/1/1 241/2/1 220/3/1 219/4/1
f 241/1/1 242/2/1 221/3/1 220/4/1
f 242/1/1 243/2/1 222/3/1 221/4/1
f 243/1/1 244/2/1 223/3/1 222/4/1
f 244/1/1 245/2/1 224/3/1 223/4/1
f 245/1/1 246/2/1 225/3/1 224/4/1
f 246/1/1 247/2/1 226/3/1 225/4/1
f 247/1/1 248/2/1 227/3/1 226/4/1
f 248/1/1 249/2/1 228/3/1 227/4/1
f 249/1/1 250/2/1 229/3/1 228/4/1
f 250/1/1 251/2/1 230/3/1 229/4/1
f 251/1/1 252/2/1 231/3/1 230/4/1
f 253/1/1 254/2/1 233/3/1 232/4/1
f 254/1/1 255/2/1 234/3/1 233/4/1
f 255/1/1 256/2/1 235/3/1 234/4/1
f 256/1/1 257/2/1 236/3/1 235/4/1
f 257/1/1 258/2/1 237/3/1 236/4/1
f 258/1/1 259/2/1 238/3/1 237/4/1
f 259/1/1 260/2/1 239/3/1 238/4/1
f 260/1/1 261/2/1 240/3/1 239/4/1
f 261/1/1 262/2/1 241/3/1 240/4/1
f 262/1/1 263/2/1 242/3/1 241/4/1
f 263/1/1 264/2/1 243/3/1 242/4/1
f 264/1/1 265/2/1 244/3/1 243/4/1
f 265/1/1 266/2/1 245/3/1 244/4/1
f 266/1/1 267/2/1 246/3/1 245/4/1
f 267/1/1 268/2/1 247/3/1 246/4/1
f 268/1/1 269/2/1 248/3/1 247/4/1
f 269/1/1 270/2/1 249/3/1 248/4/1
f 270/1/1 271/2/1 250/3/1 249/4/1
f 271/1/1 272/2/1 251/3/1 250/4/1
f 272/1/1 273/2/1 252/3/1 251/4/1
f 274/1/1 275/2/1 254/3/1 253/4/1
f 275/1/1 276/2/1 255/3/1 254/4/1
f 276/1/1 277/2/1 256/3/1 255/4/1
f 277/1/1 278/2/1 257/3/1 256/4/1
f 278/1/1 279/2/1 258/3/1 257/4/1
f 279/1/1 280/2/1 259/3/1 258/4/1
f 280/1/1 281/2/1 260/3/1 259/4/1
f 281/1/1 282/2/1 261/3/1 260/4/1
f 282/1/1 283/2/1 262/3/1 261/4/1
f 283/1/1 284/2/1 263/3/1 262/4/1
f 284/1/1 285/2/1 264/3/1 263/4/1
f 285/1/1 286/2/1 265/3/1 264/4/1
f 286/1/1 287/2/1 266/3/1 265/4/1
f 287/1/1 288/2/1 267/3/1 266/4/1
f 288/1/1 289/2/1 268/3/1 267/4/1
f 289/1/1 290/2/1 269/3/1 268/4/1
f 290/1/1 291/2/1 270/3/1 269/4/1
f 291/1/1 292/2/1 271/3/1 270/4/1
f 292/1/1 293/2/1 272/3/1 271/4/1
f 293/1/1 294/2/1 273/3/1 272/4/1
f 295/1/1 296/2/1 275/3/1 274/4/1
f 296/1/1 297/2/1 276/3/1 275/4/1
f 297/1/1 298/2/1 277/3/1 276/4/1
f 298/1/1 299/2/1 278/3/1 277/4/1
f 299/1/1 300/2/1 279/3/1 278/4/1
f 300/1/1 301/2/1 280/3/1 279/4/1
f 301/1/1 302/2/1 281/3/1 280/4/1
f 302/1/1 303/2/1 282/3/1 281/4/1
f 303/1/1 304/2/1 283/3/1 282/4/1
f 304/1/1 305/2/1 284/3/1 283/4/1
f 305/1/1 306/2/1 285/3/1 284/4/1
f 306/1/1 307/2/1 286/3/1 285/4/1
f 307/1/1 308/2/1 287/3/1 286/4/1
f 308/1/1 309/2/1 288/3/1 287/4/1
f 309/1/1 310/2/1 289/3/1 288/4/1
f 310/1/1 311/2/1 290/3/1 289/4/1
f 311/1/1 312/2/1 291/3/1 290/4/1
f 312/1/1 313/2/1 292/3/1 291/4/1
f 313/1/1 314/2/1 293/3/1 292/4/1
f 314/1/1 315/2/1 294/3/1 293/4/1
f 316/1/1 317/2/1 296/3/1 295/4/1
f 317/1/1 318/2/1 297/3/1 296/4/1
f 318/1/1 319/2/1 298/3/1 297/4/1
f 319/1/1 320/2/1 299/3/1 298/4/1
f 320/1/1 321/2/1 300/3/1 299/4/1
f 321/1/1 322/2/1 301/3/1 300/4/1
f 322/1/1 323/2/1 302/3/1 301/4/1
f 323/1/1 324/2/1 303/3/1 302/4/1
f 324/1/1 325/2/1 304/3/1 303/4/1
f 325/1/1 326/2/1 305/3/1 304/4/1
f 326/1/1 327/2/1 306/3/1 305/4/1
f 327/1/1 328/2/1 307/3/1 306/4/1
f 328/1/1 329/2/1 308/3/1 307/4/1
f 329/1/1 330/2/1 309/3/1 308/4/1
f 330/1/1 331/2/1 310/3/1 309/4/1
f 331/1/1 332/2/1 311/3/1 310/4/1
f 332/1/1 333/2/1 312/3/1 311/4/1
f 333/1/1 334/2/1 313/3/1 312/4/1
f 334/1/1 335/2/1 314/3/1 313/4/1
f 335/1/1 336/2/1 315/3/1 314/4/1

g mesh_0002
f 57/5/1 58/6/1 31/7/1 29/8/1
f 58/9/1 59/10/1 33/11/1 31/12/1
f 59/13/1 60/14/1 35/15/1 33/16/1
f 78/17/1 79/18/1 58/19/1 57/20/1
f 93/21/1 94/22/1 73/23/1 72/24/1
f 94/21/1 95/22/1 74/23/1 73/24/1
f 95/21/1 96/22/1 75/23/1 74/24/1
f 96/21/1 97/22/1 76/23/1 75/24/1
f 99/17/1 100/18/1 79/19/1 78/20/1
f 114/21/1 115/22/1 94/23/1 93/24/1
f 115/21/1 116/22/1 95/23/1 94/24/1
f 116/21/1 117/22/1 96/23/1 95/24/1
f 117/21/1 118/22/1 97/23/1 96/24/1
f 118/9/1 119/10/1 98/11/1 97/12/1
f 119/9/1 120/10/1 99/11/1 98/12/1
f 120/13/1 121/14/1 100/15/1 99/16/1
f 135/21/1 136/22/1 115/23/1 114/24/1
f 136/21/1 137/22/1 116/23/1 115/24/1
f 137/21/1 138/22/1 117/23/1 116/24/1
f 138/21/1 139/22/1 118/23/1 117/24/1
f 172/25/1 173/26/1 152/27/1 151/28/1
f 173/9/1 174/10/1 153/11/1 152/12/1
f 174/9/1 175/10/1 154/11/1 153/12/1
f 175/9/1 176/10/1 155/11/1 154/12/1
f 176/9/1 177/10/1 156/11/1 155/12/1
f 177/21/1 178/22/1 157/23/1 156/24/1
f 178/21/1 179/22/1 158/23/1 157/24/1
f 179/21/1 180/22/1 159/23/1 158/24/1
f 180/21/1 181/22/1 160/23/1 159/24/1
f 198/21/1 199/22/1 178/23/1 177/24/1
f 199/21/1 200/22/1 179/23/1 178/24/1
f 200/21/1 201/22/1 180/23/1 179/24/1
f 201/21/1 202/22/1 181/23/1 180/24/1
f 219/21/1 220/22/1 199/23/1 198/24/1
f 220/21/1 221/22/1 200/23/1 199/24/1
f 221/21/1 222/22/1 201/23/1 200/24/1
f 222/21/1 223/22/1 202/23/1 201/24/1
f 223/9/1 224/10/1 203/11/1 202/12/1
f 224/9/1 225/10/1 204/11/1 203/12/1
f 225/9/1 226/10/1 205/11/1 204/12/1
f 226/9/1 227/10/1 206/11/1 205/12/1
f 227/13/1 228/14/1 207/15/1 206/16/1
f 241/17/1 242/18/1 221/19/1 220/20/1
f 262/17/1 263/18/1 242/19/1 241/20/1
f 281/25/1 282/26/1 261/27/1 260/28/1
f 282/9/1 283/10/1 262/11/1 261/12/1
f 283/13/1 284/14/1 263/15/1 262/16/1

g mesh_0003
f 5/29/1 7/30/1 8/31/1 6/32/1
f 7/29/1 9/30/1 10/31/1 8/32/1
f 9/29/1 11/30/1 12/31/1 10/32/1
f 11/29/1 13/30/1 14/31/1 12/32/1
f 13/29/1 15/30/1 16/31/1 14/32/1
f 15/29/1 17/30/1 18/31/1 16/32/1
f 17/29/1 19/30/1 20/31/1 18/32/1
f 19/33/1 21/34/1 22/35/1 20/36/1
f 21/37/1 23/38/1 24/39/1 22/40/1
f 29/41/1 31/42/1 32/43/1 30/44/1
f 31/41/1 33/42/1 34/43/1 32/44/1
f 33/45/1 35/46/1 36/47/1 34/48/1
f 35/41/1 37/42/1 38/43/1 36/44/1
f 46/49/1 47/50/1 9/51/1 7/52/1
f 47/29/1 48/30/1 11/31/1 9/32/1
f 48/29/1 49/30/1 13/31/1 11/32/1
f 49/29/1 50/30/1 15/31/1 13/32/1
f 50/29/1 51/30/1 17/31/1 15/32/1
f 51/53/1 52/54/1 19/55/1 17/56/1
f 52/57/1 53/58/1 21/59/1 19/60/1
f 53/61/1 54/62/1 23/63/1 21/64/1
f 54/53/1 55/54/1 25/55/1 23/56/1
f 60/41/1 61/42/1 37/43/1 35/44/1
f 67/65/1 68/66/1 47/67/1 46/68/1
f 68/69/1 69/70/1 48/71/1 47/72/1
f 69/29/1 70/30/1 49/31/1 48/32/1
f 70/29/1 71/30/1 50/31/1 49/32/1
f 71/29/1 72/30/1 51/31/1 50/32/1
f 72/73/1 73/74/1 52/75/1 51/76/1
f 73/77/1 74/78/1 53/79/1 52/80/1
f 74/81/1 75/82/1 54/83/1 53/84/1
f 75/73/1 76/74/1 55/75/1 54/76/1
f 77/85/1 78/86/1 57/87/1 56/88/1
f 79/49/1 80/50/1 59/51/1 58/52/1
f 80/89/1 81/90/1 60/91/1 59/92/1
f 89/85/1 90/86/1 69/87/1 68/88/1
f 90/85/1 91/86/1 70/87/1 69/88/1
f 100/65/1 101/66/1 80/67/1 79/68/1
f 101/69/1 102/70/1 81/71/1 80/72/1
f 127/29/1 128/30/1 107/31/1 106/32/1
f 128/29/1 129/30/1 108/31/1 107/32/1
f 134/93/1 135/94/1 114/95/1 113/96/1
f 135/97/1 136/98/1 115/99/1 114/100/1
f 137/49/1 138/50/1 117/51/1 116/52/1
f 138/89/1 139/90/1 118/91/1 117/92/1
f 141/101/1 142/102/1 121/103/1 120/104/1
f 143/29/1 144/30/1 123/31/1 122/32/1
f 144/85/1 145/86/1 124/87/1 123/88/1
f 145/29/1 146/30/1 125/31/1 124/32/1
f 148/29/1 149/30/1 128/31/1 127/32/1
f 149/85/1 150/86/1 129/87/1 128/88/1
f 151/105/1 152/106/1 131/107/1 130/108/1
f 155/109/1 156/110/1 135/111/1 134/112/1
f 156/113/1 157/114/1 136/115/1 135/116/1
f 157/117/1 158/118/1 137/119/1 136/120/1
f 158/65/1 159/66/1 138/67/1 137/68/1
f 159/69/1 160/70/1 139/71/1 138/72/1
f 165/29/1 166/30/1 145/31/1 144/32/1
f 190/85/1 191/86/1 170/87/1 169/88/1
f 191/85/1 192/86/1 171/87/1 170/88/1
f 202/29/1 203/30/1 182/31/1 181/32/1
f 203/29/1 204/30/1 183/31/1 182/32/1
f 206/105/1 207/106/1 186/107/1 185/108/1
f 208/29/1 209/30/1 188/31/1 187/32/1
f 211/29/1 212/30/1 191/31/1 190/32/1
f 212/85/1 213/86/1 192/87/1 191/88/1
f 213/29/1 214/30/1 193/31/1 192/32/1
f 216/101/1 217/102/1 196/103/1 195/104/1
f 230/29/1 231/30/1 210/31/1 209/32/1
f 232/29/1 233/30/1 212/31/1 211/32/1
f 233/29/1 234/30/1 213/31/1 212/32/1
f 234/29/1 235/30/1 214/31/1 213/32/1
f 242/85/1 243/86/1 222/87/1 221/88/1
f 244/29/1 245/30/1 224/31/1 223/32/1
f 245/29/1 246/30/1 225/31/1 224/32/1
f 246/29/1 247/30/1 226/31/1 225/32/1
f 249/29/1 250/30/1 229/31/1 228/32/1
f 250/29/1 251/30/1 230/31/1 229/32/1
f 251/29/1 252/30/1 231/31/1 230/32/1
f 253/29/1 254/30/1 233/31/1 232/32/1
f 260/121/1 261/122/1 240/123/1 239/124/1
f 264/49/1 265/50/1 244/51/1 243/52/1
f 265/89/1 266/90/1 245/91/1 244/92/1
f 270/29/1 271/30/1 250/31/1 249/32/1
f 274/29/1 275/30/1 254/31/1 253/32/1
f 275/29/1 276/30/1 255/31/1 254/32/1
f 284/29/1 285/30/1 264/31/1 263/32/1
f 285/65/1 286/66/1 265/67/1 264/68/1
f 286/69/1 287/70/1 266/71/1 265/72/1
f 291/125/1 292/126/1 271/127/1 270/128/1
f 295/29/1 296/30/1 275/31/1 274/32/1
f 296/29/1 297/30/1 276/31/1 275/32/1
f 297/29/1 298/30/1 277/31/1 276/32/1
f 298/29/1 299/30/1 278/31/1 277/32/1
f 299/29/1 300/30/1 279/31/1 278/32/1
f 308/29/1 309/30/1 288/31/1 287/32/1
f 313/29/1 314/30/1 293/31/1 292/32/1
f 314/29/1 315/30/1 294/31/1 293/32/1
f 316/29/1 317/30/1 296/31/1 295/32/1
f 317/29/1 318/30/1 297/31/1 296/32/1
f 318/29/1 319/30/1 298/31/1 297/32/1
f 319/29/1 320/30/1 299/31/1 298/32/1
f 320/29/1 321/30/1 300/31/1 299/32/1
f 321/29/1 322/30/1 301/31/1 300/32/1
f 322/29/1 323/30/1 302/31/1 301/32/1
f 323/29/1 324/30/1 303/31/1 302/32/1
f 328/29/1 329/30/1 308/31/1 307/32/1
f 330/29/1 331/30/1 310/31/1 309/32/1
f 331/29/1 332/30/1 311/31/1 310/32/1
f 334/29/1 335/30/1 314/31/1 313/32/1

